# Blender 4.3.2
# www.blender.org
mtllib Bench-simple2.mtl
o Cube
v -0.266012 0.000170 1.294306
v 0.410000 1.020000 1.293796
v -0.410000 1.020000 1.293796
v 0.410000 0.837049 1.293796
v -0.410000 0.837049 1.293796
v 0.410000 1.020000 1.490821
v 0.410000 0.837049 1.490821
v -0.410000 1.020000 1.490821
v -0.410000 0.837049 1.490821
v 0.260192 1.020000 1.520000
v 0.260192 1.020000 -1.520000
v 0.260192 0.837049 -1.520000
v 0.260192 0.837049 1.520000
v 0.260192 1.020000 1.293796
v 0.260192 0.000000 1.490821
v 0.260192 1.020000 1.490821
v -0.387747 0.836998 1.293902
v 0.392831 1.020000 -1.520000
v 0.392831 0.837049 -1.520000
v 0.392831 1.020000 1.293796
v 0.392831 1.020000 1.490821
v 0.393053 0.837138 -1.314444
v 0.392831 1.020000 1.520000
v 0.392831 0.837049 1.520000
v 0.392831 0.000000 1.293796
v -0.387713 1.020000 1.520000
v -0.387713 0.837049 1.520000
v -0.387713 0.000000 1.293796
v -0.265913 0.837509 1.490821
v -0.387713 1.020000 -1.520000
v -0.387713 0.837049 -1.520000
v -0.387713 1.020000 1.293796
v -0.387713 1.020000 1.490821
v -0.265913 1.020000 -1.520000
v -0.265913 0.837049 -1.520000
v -0.265913 1.020000 1.293796
v -0.265913 1.020000 1.490821
v -0.265913 1.020000 1.520000
v -0.265913 0.837049 1.520000
v -0.265913 0.000000 1.490821
v -0.410000 1.020000 -1.481569
v -0.410000 0.837049 -1.481569
v 0.410000 1.020000 -1.481569
v 0.410000 0.837049 -1.481569
v 0.260192 1.020000 -1.481569
v 0.260192 0.000000 -1.481569
v 0.392831 1.020000 -1.481569
v -0.387713 1.020000 -1.481569
v -0.265913 1.020000 -1.481569
v -0.265913 0.000000 -1.481569
v 0.410000 1.020000 -1.314467
v 0.410000 0.837049 -1.314467
v 0.260192 1.020000 -1.314467
v 0.392831 1.020000 -1.314467
v 0.392831 -0.000424 -1.314467
v -0.387713 -0.000425 -1.314467
v -0.387713 1.020000 -1.314467
v -0.265913 1.020000 -1.314467
v -0.410000 1.020000 -1.314467
v -0.410000 0.837049 -1.314467
v 0.261119 0.000245 1.293741
v -0.265664 0.000496 -1.314760
v 0.260206 0.000091 -1.314246
v -0.265712 0.837071 -1.481804
v -0.266005 0.837360 -1.314384
v 0.260226 0.836961 -1.314375
v 0.260164 0.837038 -1.481769
v -0.266209 0.837047 1.293917
v 0.260531 0.836968 1.293805
v 0.259988 0.837144 1.490954
v 0.392730 0.836804 1.293798
v -0.388957 0.837141 -1.314740
v -0.410000 1.020000 1.490821
v -0.401633 1.020000 1.520000
v -0.408879 1.020000 1.505410
v -0.405816 1.020000 1.516091
v -0.401633 0.837049 1.520000
v -0.410000 0.837049 1.490821
v -0.405816 0.837049 1.516091
v -0.408879 0.837049 1.505410
v 0.402095 1.020000 1.520000
v 0.410000 1.020000 1.490821
v 0.406047 1.020000 1.516091
v 0.408941 1.020000 1.505410
v 0.410000 0.837049 1.490821
v 0.402095 0.837049 1.520000
v 0.408941 0.837049 1.505410
v 0.406047 0.837049 1.516091
v 0.410000 1.020000 -1.481569
v 0.398797 1.020000 -1.520000
v 0.408499 1.020000 -1.500785
v 0.404399 1.020000 -1.514851
v 0.398797 0.837049 -1.520000
v 0.410000 0.837049 -1.481569
v 0.404399 0.837049 -1.514851
v 0.408499 0.837049 -1.500785
v -0.395106 1.020000 -1.520000
v -0.410000 1.020000 -1.481569
v -0.402553 1.020000 -1.514851
v -0.408005 1.020000 -1.500785
v -0.410000 0.837049 -1.481569
v -0.395106 0.837049 -1.520000
v -0.408005 0.837049 -1.500785
v -0.402553 0.837049 -1.514851
v 0.370709 0.836908 -1.481398
v 0.392977 0.837008 -1.399042
v 0.409979 0.837049 -1.481569
v 0.392831 0.837048 -1.519924
v 0.381816 0.836912 -1.470337
v 0.389967 0.836949 -1.440193
v 0.392831 0.000000 1.408539
v 0.370636 0.000000 1.490821
v 0.389857 0.000000 1.449680
v 0.381734 0.000000 1.479797
v -0.365519 0.000000 1.490821
v -0.387713 0.000000 1.408539
v -0.376616 0.000000 1.479797
v -0.384740 0.000000 1.449680
v -0.387732 0.837122 1.407971
v -0.365527 0.837265 1.490356
v -0.387713 0.837049 1.519924
v -0.409915 0.837049 1.490819
v -0.384753 0.837174 1.449125
v -0.376626 0.837226 1.479280
v 0.392831 -0.000209 -1.399288
v 0.370636 0.000000 -1.481569
v 0.389857 -0.000104 -1.440428
v 0.381734 -0.000028 -1.470546
v -0.387713 -0.000209 -1.399288
v -0.365519 0.000000 -1.481569
v -0.384740 -0.000105 -1.440428
v -0.376616 -0.000028 -1.470546
v 0.370626 0.836838 1.490578
v 0.392783 0.836788 1.408221
v 0.409979 0.837048 1.490821
v 0.392831 0.837048 1.519924
v 0.381718 0.836809 1.479517
v 0.389828 0.836791 1.449372
v -0.365593 0.837090 -1.481684
v -0.388363 0.837118 -1.399404
v -0.409982 0.837049 -1.481569
v -0.387713 0.837049 -1.519924
v -0.376767 0.837095 -1.470651
v -0.385102 0.837106 -1.440535
v -0.338523 1.115851 1.429284
v -0.400000 1.054374 1.490761
v -0.357520 1.112842 1.448282
v -0.374658 1.104110 1.465420
v -0.388259 1.090509 1.479020
v -0.396991 1.073371 1.487753
v -0.338523 1.115851 -1.429284
v -0.400000 1.054374 -1.490761
v -0.357520 1.112842 -1.448282
v -0.374658 1.104110 -1.465420
v -0.388259 1.090509 -1.479020
v -0.396991 1.073371 -1.487753
v 0.338523 1.115851 1.429284
v 0.400000 1.054374 1.490761
v 0.357520 1.112842 1.448282
v 0.374658 1.104110 1.465420
v 0.388259 1.090509 1.479020
v 0.396991 1.073371 1.487753
v 0.338523 1.115851 -1.429284
v 0.400000 1.054374 -1.490761
v 0.357520 1.112842 -1.448282
v 0.374658 1.104110 -1.465420
v 0.388259 1.090509 -1.479020
v 0.396991 1.073371 -1.487753
v -0.381557 1.015851 1.472318
v -0.400000 1.034294 1.490761
v -0.388615 1.017255 1.479376
v -0.394598 1.021253 1.485359
v -0.398596 1.027236 1.489357
v -0.400000 1.034294 -1.490761
v -0.381557 1.015851 -1.472318
v -0.398596 1.027236 -1.489357
v -0.394598 1.021253 -1.485359
v -0.388615 1.017255 -1.479376
v 0.400000 1.034294 1.490761
v 0.381557 1.015851 1.472318
v 0.398596 1.027236 1.489357
v 0.394598 1.021253 1.485359
v 0.388615 1.017255 1.479376
v 0.400000 1.034294 -1.490761
v 0.381557 1.015851 -1.472318
v 0.398596 1.027236 -1.489357
v 0.394598 1.021253 -1.485359
v 0.388615 1.017255 -1.479376
vn 0.0020 1.0000 0.0010
vn -0.0000 1.0000 -0.0000
vn -0.0000 -0.0000 -1.0000
vn -0.0000 -0.0000 1.0000
vn 1.0000 -0.0000 -0.0000
vn -1.0000 -0.0000 -0.0000
vn -0.0001 -1.0000 0.0009
vn 0.0036 -1.0000 0.0001
vn 1.0000 -0.0000 -0.0002
vn -0.0005 -1.0000 -0.0021
vn -1.0000 0.0002 0.0004
vn -1.0000 -0.0000 0.0001
vn 0.0001 -1.0000 -0.0000
vn 0.0011 -0.9999 -0.0111
vn 0.0012 -1.0000 0.0004
vn 0.0007 -1.0000 -0.0004
vn 0.0022 -0.0002 -1.0000
vn 1.0000 0.0001 -0.0010
vn -0.0003 -1.0000 -0.0095
vn -0.0004 -1.0000 0.0016
vn -0.0013 -1.0000 0.0025
vn -0.0023 0.0003 1.0000
vn 0.0017 0.0001 1.0000
vn 1.0000 0.0001 -0.0002
vn 0.0002 -0.0000 -1.0000
vn -1.0000 -0.0005 -0.0037
vn -0.0011 -0.0001 -1.0000
vn -0.0009 -1.0000 -0.0006
vn 0.0039 -1.0000 0.0003
vn -0.0000 -1.0000 -0.0000
vn -0.0017 -0.0000 1.0000
vn -0.0000 -1.0000 0.0001
vn 0.0045 -1.0000 -0.0001
vn -0.0004 -1.0000 0.0006
vn 0.0148 -0.9999 -0.0001
vn -0.0006 -0.0002 -1.0000
vn -1.0000 -0.0011 -0.0035
vn 1.0000 0.0001 0.0001
vn -0.0003 -0.0001 1.0000
vn 0.0011 -1.0000 -0.0001
vn 0.0010 -1.0000 -0.0000
vn -0.0000 1.0000 0.0001
vn -0.0005 -1.0000 -0.0001
vn -0.6827 -0.0000 0.7307
vn -0.9613 -0.0000 0.2756
vn -0.9971 -0.0000 0.0766
vn 0.7032 -0.0000 0.7110
vn 0.9652 -0.0000 0.2615
vn 0.9974 -0.0000 0.0724
vn 0.9970 -0.0000 -0.0779
vn 0.9600 -0.0000 -0.2799
vn 0.6767 -0.0000 -0.7362
vn -0.5687 -0.0000 -0.8225
vn -0.9324 -0.0000 -0.3614
vn -0.9947 -0.0000 -0.1033
vn -0.0047 1.0000 0.0008
vn 0.0054 -1.0000 -0.0010
vn 0.0075 -1.0000 0.0030
vn 0.0012 -1.0000 0.0006
vn -0.7056 0.0004 0.7086
vn -0.9655 0.0002 0.2603
vn -0.9974 -0.0000 0.0721
vn -0.7052 -0.0001 0.7090
vn -0.9654 -0.0000 0.2607
vn -0.9974 0.0001 0.0725
vn 0.7054 0.0002 0.7088
vn 0.9656 0.0001 0.2601
vn 0.9974 0.0001 0.0719
vn -0.9971 -0.0006 -0.0756
vn -0.9646 -0.0003 -0.2636
vn -0.7037 -0.0002 -0.7105
vn 0.0002 1.0000 -0.0005
vn -0.1564 0.9877 -0.0000
vn -0.4540 0.8910 -0.0000
vn -0.7071 0.7071 -0.0000
vn -0.8910 0.4540 -0.0000
vn -0.9877 0.1564 -0.0000
vn -0.0000 0.9877 -0.1564
vn -0.0000 0.8910 -0.4540
vn -0.0000 0.7071 -0.7071
vn -0.0000 0.4540 -0.8910
vn -0.0000 0.1564 -0.9877
vn 0.1564 0.9877 -0.0000
vn 0.4540 0.8910 -0.0000
vn 0.7071 0.7071 -0.0000
vn 0.8910 0.4540 -0.0000
vn 0.9877 0.1564 -0.0000
vn -0.0000 0.9877 0.1564
vn -0.0000 0.8910 0.4540
vn -0.0000 0.7071 0.7071
vn -0.0000 0.4540 0.8910
vn -0.0000 0.1564 0.9877
vn -0.1951 -0.9808 -0.0000
vn -0.5556 -0.8315 -0.0000
vn -0.8315 -0.5556 -0.0000
vn -0.9808 -0.1951 -0.0000
vn -0.0000 -0.9808 -0.1951
vn -0.0000 -0.8315 -0.5556
vn -0.0000 -0.5556 -0.8315
vn -0.0000 -0.1951 -0.9808
vn 0.1951 -0.9808 -0.0000
vn 0.5556 -0.8315 -0.0000
vn 0.8315 -0.5556 -0.0000
vn 0.9808 -0.1951 -0.0000
vn -0.0000 -0.9808 0.1951
vn -0.0000 -0.8315 0.5556
vn -0.0000 -0.5556 0.8315
vn -0.0000 -0.1951 0.9808
vt 0.000000 0.000000
vt 0.868205 0.747600
vt 0.875000 0.747600
vt 0.874658 0.748800
vt 0.873724 0.749678
vt 0.872449 0.750000
vt 0.868205 0.750000
vt 0.580159 0.254541
vt 0.625000 0.254541
vt 0.625000 0.256795
vt 0.580159 0.256795
vt 0.580159 0.752410
vt 0.625000 0.752410
vt 0.625000 0.755235
vt 0.580159 0.755234
vt 0.580159 0.503160
vt 0.625000 0.503160
vt 0.580159 0.516902
vt 0.625000 0.516902
vt 0.625000 0.731398
vt 0.580159 0.731398
vt 0.580159 0.002400
vt 0.625000 0.002400
vt 0.625000 0.018602
vt 0.580159 0.018602
vt 0.868205 0.516902
vt 0.875000 0.516902
vt 0.875000 0.731398
vt 0.868205 0.731398
vt 0.580159 0.993205
vt 0.625000 0.993205
vt 0.625000 0.997449
vt 0.580159 0.997449
vt 0.625000 0.747600
vt 0.580159 0.747600
vt 0.630235 0.731398
vt 0.670673 0.731398
vt 0.670673 0.747600
vt 0.630235 0.747600
vt 0.630235 0.516902
vt 0.670673 0.516902
vt 0.580159 0.293929
vt 0.625000 0.293929
vt 0.625000 0.454327
vt 0.580159 0.454327
vt 0.625000 0.795673
vt 0.580159 0.795673
vt 0.670673 0.750000
vt 0.630235 0.750000
vt 0.579008 0.256286
vt 0.625000 0.494765
vt 0.580159 0.494766
vt 0.580159 0.246840
vt 0.579679 0.246636
vt 0.580159 0.233098
vt 0.831071 0.731398
vt 0.831071 0.747600
vt 0.831071 0.516902
vt 0.580159 0.956071
vt 0.625000 0.956071
vt 0.831071 0.750000
vt 0.670673 0.500000
vt 0.831071 0.500000
vt 0.831071 0.503160
vt 0.670673 0.503160
vt 0.868205 0.500000
vt 0.868205 0.503160
vt 0.625000 0.496585
vt 0.580159 0.496585
vt 0.630235 0.500000
vt 0.630235 0.503160
vt 0.625000 0.246840
vt 0.579018 0.493793
vt 0.625000 0.233098
vt 0.875000 0.503160
vt 0.580159 0.372886
vt 0.562210 0.155971
vt 0.565616 0.026210
vt 0.577948 0.002390
vt 0.578674 0.990663
vt 0.578678 0.990669
vt 0.577948 0.002390
vt 0.578664 0.753288
vt 0.574214 0.741194
vt 0.572927 0.741714
vt 0.580160 0.752411
vt 0.578663 0.753287
vt 0.579468 0.746710
vt 0.570624 0.490249
vt 0.571693 0.494161
vt 0.579464 0.502558
vt 0.579020 0.493794
vt 0.571471 0.244824
vt 0.570682 0.247986
vt 0.579007 0.256285
vt 0.579679 0.246635
vt 0.579467 0.746708
vt 0.625000 1.000000
vt 0.580159 1.000000
vt 0.580159 0.000000
vt 0.625000 0.000000
vt 0.625000 0.001200
vt 0.580159 0.001200
vt 0.625000 0.751205
vt 0.625000 0.748800
vt 0.627410 0.750000
vt 0.626205 0.749678
vt 0.625323 0.748800
vt 0.625000 0.501580
vt 0.625000 0.498292
vt 0.625458 0.501580
vt 0.626708 0.500423
vt 0.628415 0.500000
vt 0.625000 0.252270
vt 0.625000 0.248420
vt 0.870459 0.500000
vt 0.872730 0.500423
vt 0.874392 0.501580
vt 0.579463 0.502556
vt 0.644212 0.505155
vt 0.855788 0.505155
vt 0.855788 0.744845
vt 0.644212 0.744845
vt 0.421109 0.250000
vt 0.471308 0.250000
vt 0.471308 0.500000
vt 0.421109 0.500000
vt 0.421109 0.750000
vt 0.471308 0.750000
vt 0.471308 1.000000
vt 0.421109 1.000000
vt 0.861725 0.503562
vt 0.861725 0.746438
vt 0.867081 0.502125
vt 0.867081 0.747875
vt 0.875000 0.500984
vt 0.875000 0.749016
vt 0.625000 0.000984
vt 0.625000 0.249016
vt 0.518801 0.249748
vt 0.518801 0.000252
vt 0.471308 0.000000
vt 0.638275 0.503562
vt 0.632919 0.502125
vt 0.628669 0.500000
vt 0.871331 0.500000
vt 0.625000 0.253669
vt 0.625000 0.496331
vt 0.518801 0.499060
vt 0.518801 0.250940
vt 0.638275 0.746438
vt 0.632919 0.747875
vt 0.561645 0.749016
vt 0.561645 0.500984
vt 0.518801 0.749748
vt 0.518801 0.500252
vt 0.871331 0.750000
vt 0.628669 0.750000
vt 0.625000 0.753669
vt 0.625000 0.996331
vt 0.518801 0.999060
vt 0.518801 0.750940
vt 0.421109 0.000000
vt 0.130764 0.501546
vt 0.130764 0.748453
vt 0.128558 0.749045
vt 0.128558 0.500955
vt 0.125000 0.749547
vt 0.125000 0.500453
vt 0.375000 0.249547
vt 0.375000 0.000453
vt 0.403464 0.000118
vt 0.403464 0.249882
vt 0.369236 0.501546
vt 0.371442 0.500955
vt 0.126688 0.500000
vt 0.373312 0.500000
vt 0.375000 0.498312
vt 0.375000 0.251688
vt 0.403464 0.250439
vt 0.403464 0.499561
vt 0.369236 0.748453
vt 0.371442 0.749045
vt 0.375000 0.500453
vt 0.375000 0.749547
vt 0.403464 0.500118
vt 0.403464 0.749882
vt 0.373312 0.750000
vt 0.126688 0.750000
vt 0.375000 0.998312
vt 0.375000 0.751688
vt 0.403464 0.750439
vt 0.403464 0.999561
s 0
usemtl Material
f 46/1/1 63/1/1 55/1/1 125/1/1 127/1/1 128/1/1 126/1/1
f 33/2/2 8/3/2 73/3/2 75/4/2 76/5/2 74/6/2 26/7/2
f 102/8/3 97/9/3 30/10/3 31/11/3
f 86/12/4 81/13/4 23/14/4 24/15/4
f 94/16/2 89/17/2 43/17/2 44/16/2
f 52/18/5 51/19/5 2/20/5 4/21/5
f 9/22/6 8/23/6 3/24/6 5/25/6
f 57/26/2 59/27/2 3/28/2 32/29/2
f 27/30/4 26/31/4 74/32/4 77/33/4
f 4/21/5 2/20/5 6/34/5 7/35/5
f 32/29/2 3/28/2 8/3/2 33/2/2
f 20/36/2 14/37/2 16/38/2 21/39/2
f 54/40/2 53/41/2 14/37/2 20/36/2
f 35/42/3 34/43/3 11/44/3 12/45/3
f 24/15/4 23/14/4 10/46/4 13/47/4
f 21/39/2 16/38/2 10/48/2 23/49/2
f 7/35/2 6/34/2 82/34/2 85/35/2
f 35/42/7 64/1/7 139/1/7 142/50/7 31/11/7
f 51/19/2 54/40/2 20/36/2 2/20/2
f 2/20/2 20/36/2 21/39/2 6/34/2
f 12/45/3 11/44/3 18/51/3 19/52/3
f 42/53/8 141/54/8 140/1/8 72/1/8 60/55/8
f 36/56/2 32/29/2 33/2/2 37/57/2
f 58/58/2 57/26/2 32/29/2 36/56/2
f 39/59/4 38/60/4 26/31/4 27/30/4
f 37/57/2 33/2/2 26/7/2 38/61/2
f 16/38/2 37/57/2 38/61/2 10/48/2
f 13/47/4 10/46/4 38/60/4 39/59/4
f 53/41/2 58/58/2 36/56/2 14/37/2
f 14/37/2 36/56/2 37/57/2 16/38/2
f 31/11/3 30/10/3 34/43/3 35/42/3
f 11/62/2 34/63/2 49/64/2 45/65/2
f 34/63/2 30/66/2 48/67/2 49/64/2
f 46/1/9 67/1/9 66/1/9 63/1/9
f 19/52/3 18/51/3 90/68/3 93/69/3
f 18/70/2 11/62/2 45/65/2 47/71/2
f 42/53/2 41/72/2 98/72/2 101/53/2
f 19/52/10 108/73/10 105/1/10 67/1/10 12/45/10
f 60/55/6 59/74/6 41/72/6 42/53/6
f 5/25/6 3/24/6 59/74/6 60/55/6
f 45/65/2 49/64/2 58/58/2 53/41/2
f 49/64/2 48/67/2 57/26/2 58/58/2
f 43/17/2 47/71/2 54/40/2 51/19/2
f 47/71/2 45/65/2 53/41/2 54/40/2
f 48/67/2 41/75/2 59/27/2 57/26/2
f 22/1/11 106/1/11 125/1/11 55/1/11
f 44/16/5 43/17/5 51/19/5 52/18/5
f 28/1/12 116/1/12 119/1/12 17/1/12
f 27/30/13 77/76/13 79/77/13 80/78/13 78/22/13 9/22/13 122/79/13 121/80/13
f 27/30/14 121/81/14 120/1/14 29/1/14 39/59/14
f 5/25/15 17/1/15 119/1/15 122/82/15 9/22/15
f 28/1/16 1/1/16 40/1/16 115/1/16 117/1/16 118/1/16 116/1/16
f 28/1/17 17/1/17 68/1/17 1/1/17
f 40/1/18 1/1/18 68/1/18 29/1/18
f 39/59/19 29/1/19 70/1/19 13/47/19
f 69/1/20 70/1/20 29/1/20 68/1/20
f 13/47/21 70/1/21 133/1/21 136/83/21 24/15/21
f 7/35/13 85/35/13 87/84/13 88/85/13 86/86/13 24/15/13 136/87/13 135/88/13
f 115/1/22 40/1/22 29/1/22 120/1/22
f 15/1/23 112/1/23 133/1/23 70/1/23
f 25/1/24 71/1/24 134/1/24 111/1/24
f 61/1/25 69/1/25 71/1/25 25/1/25
f 69/1/26 61/1/26 15/1/26 70/1/26
f 66/1/27 22/1/27 55/1/27 63/1/27
f 15/1/28 61/1/28 25/1/28 111/1/28 113/1/28 114/1/28 112/1/28
f 56/1/29 129/1/29 131/1/29 132/1/29 130/1/29 50/1/29 62/1/29
f 93/69/30 95/89/30 96/90/30 94/16/30 44/16/30 107/91/30 108/92/30 19/52/30
f 126/1/31 105/1/31 67/1/31 46/1/31
f 12/45/32 67/1/32 64/1/32 35/42/32
f 4/21/33 71/1/33 22/1/33 52/18/33
f 66/1/34 65/1/34 64/1/34 67/1/34
f 101/53/30 103/93/30 104/94/30 102/8/30 31/11/30 142/95/30 141/96/30 42/53/30
f 4/21/35 7/35/35 135/97/35 134/1/35 71/1/35
f 64/1/36 50/1/36 130/1/36 139/1/36
f 72/1/37 140/1/37 129/1/37 56/1/37
f 50/1/38 64/1/38 65/1/38 62/1/38
f 56/1/39 62/1/39 65/1/39 72/1/39
f 65/1/40 68/1/40 17/1/40 72/1/40
f 60/55/41 72/1/41 17/1/41 5/25/41
f 66/1/42 69/1/42 71/1/42 22/1/42
f 65/1/43 66/1/43 69/1/43 68/1/43
f 77/33/44 74/32/44 76/98/44 79/99/44
f 79/100/45 76/101/45 75/102/45 80/103/45
f 80/103/46 75/102/46 73/23/46 78/22/46
f 78/22/2 73/23/2 8/23/2 9/22/2
f 81/13/47 86/12/47 88/85/47 83/104/47
f 83/104/48 88/85/48 87/84/48 84/105/48
f 84/105/49 87/84/49 85/35/49 82/34/49
f 6/34/2 21/39/2 23/49/2 81/106/2 83/107/2 84/108/2 82/34/2
f 89/17/50 94/16/50 96/90/50 91/109/50
f 91/109/51 96/90/51 95/89/51 92/110/51
f 92/110/52 95/89/52 93/69/52 90/68/52
f 89/17/2 91/111/2 92/112/2 90/113/2 18/70/2 47/71/2 43/17/2
f 97/9/53 102/8/53 104/94/53 99/114/53
f 99/114/54 104/94/54 103/93/54 100/115/54
f 100/115/55 103/93/55 101/53/55 98/72/55
f 30/66/2 97/116/2 99/117/2 100/118/2 98/75/2 41/75/2 48/67/2
f 105/1/56 109/1/56 110/1/56 106/1/56 107/119/56 108/1/56
f 119/1/57 123/1/57 124/1/57 120/1/57 121/81/57 122/79/57
f 133/1/58 137/1/58 138/1/58 134/1/58 135/97/58 136/87/58
f 139/1/59 143/1/59 144/1/59 140/1/59 141/54/59 142/95/59
f 115/1/60 120/1/60 124/1/60 117/1/60
f 117/1/61 124/1/61 123/1/61 118/1/61
f 118/1/62 123/1/62 119/1/62 116/1/62
f 105/1/63 126/1/63 128/1/63 109/1/63
f 109/1/64 128/1/64 127/1/64 110/1/64
f 110/1/65 127/1/65 125/1/65 106/1/65
f 133/1/66 112/1/66 114/1/66 137/1/66
f 137/1/67 114/1/67 113/1/67 138/1/67
f 138/1/68 113/1/68 111/1/68 134/1/68
f 129/1/69 140/1/69 144/1/69 131/1/69
f 131/1/70 144/1/70 143/1/70 132/1/70
f 132/1/71 143/1/71 139/1/71 130/1/71
f 52/18/72 44/16/72 107/119/72 106/1/72 22/1/72
f 163/120/2 151/121/2 145/122/2 157/123/2
f 174/124/3 152/125/3 164/126/3 184/127/3
f 179/128/4 158/129/4 146/130/4 170/131/4
f 184/127/5 164/126/5 158/129/5 179/128/5
f 145/122/73 151/121/73 153/132/73 147/133/73
f 147/133/74 153/132/74 154/134/74 148/135/74
f 148/135/75 154/134/75 155/136/75 149/137/75
f 149/138/76 155/139/76 156/140/76 150/141/76
f 150/141/77 156/140/77 152/125/77 146/142/77
f 151/121/78 163/120/78 165/143/78 153/132/78
f 153/132/79 165/143/79 166/144/79 154/134/79
f 154/134/80 166/144/80 167/145/80 155/146/80
f 155/147/81 167/148/81 168/149/81 156/150/81
f 156/150/82 168/149/82 164/126/82 152/125/82
f 163/120/83 157/123/83 159/151/83 165/143/83
f 165/143/84 159/151/84 160/152/84 166/144/84
f 166/144/85 160/152/85 161/153/85 167/154/85
f 167/154/86 161/153/86 162/155/86 168/156/86
f 168/156/87 162/155/87 158/129/87 164/126/87
f 157/123/88 145/122/88 147/133/88 159/151/88
f 159/151/89 147/133/89 148/135/89 160/152/89
f 160/152/90 148/135/90 149/157/90 161/158/90
f 161/159/91 149/160/91 150/161/91 162/162/91
f 162/162/92 150/161/92 146/130/92 158/129/92
f 170/163/6 146/142/6 152/125/6 174/124/6
f 175/164/93 169/165/93 171/166/93 178/167/93
f 178/167/94 171/166/94 172/168/94 177/169/94
f 177/170/95 172/171/95 173/172/95 176/173/95
f 176/173/96 173/172/96 170/163/96 174/124/96
f 185/174/97 175/164/97 178/167/97 188/175/97
f 188/175/98 178/167/98 177/176/98 187/177/98
f 187/178/99 177/179/99 176/180/99 186/181/99
f 186/181/100 176/180/100 174/124/100 184/127/100
f 180/182/101 185/174/101 188/175/101 183/183/101
f 183/183/102 188/175/102 187/184/102 182/185/102
f 182/185/103 187/184/103 186/186/103 181/187/103
f 181/187/104 186/186/104 184/127/104 179/128/104
f 169/165/105 180/182/105 183/183/105 171/166/105
f 171/166/106 183/183/106 182/188/106 172/189/106
f 172/190/107 182/191/107 181/192/107 173/193/107
f 173/193/108 181/192/108 179/128/108 170/131/108
f 175/164/30 185/174/30 180/182/30 169/165/30
l 53 66
l 37 29
l 49 64
l 54 22
l 17 32
l 57 72
l 36 68
l 45 67
l 14 69
l 58 65
l 16 70
l 20 71
l 108 47
l 121 33
l 136 21
l 142 48
